<svg xmlns="http://www.w3.org/2000/svg" viewBox="854.607 191.604 210.819 210.828">
  <defs>
    <style>
      .cls-1 {
        fill: #fddc10;
      }

      .cls-2 {
        fill: #fff;
      }
    </style>
  </defs>
  <g id="group-7" transform="translate(-216.981 -458.979)">
    <path id="path" class="cls-1" d="M684.827,424.4c1.553,68.958-36.378,106.917-105.364,105.364C510.505,531.315,472.547,493.384,474.1,424.4c-1.553-68.958,36.378-106.917,105.364-105.364C648.421,317.343,686.38,355.3,684.827,424.4Z" transform="translate(597.534 331.603)"/>
    <path id="path-2" data-name="path" class="cls-2" d="M606.686,375.211V333.62H584.5V376.6a113.68,113.68,0,0,0-29.918,11.923,113.476,113.476,0,0,1-13.475,6.433V333.759H518.929v65.714c-11.091-.61-15.416-6.571-15.694-6.987l.166.249L484.27,403.826c.61,1.026,10.509,17.135,34.687,17.8v41.147h22.182V418.41a122.942,122.942,0,0,0,24.234-10.481,98.769,98.769,0,0,1,19.159-8.318V462.83h22.182V397.7a22.875,22.875,0,0,1,13.642,6.987L638.489,391.9A45.611,45.611,0,0,0,606.686,375.211Z" transform="translate(615.645 357.555)"/>
  </g>
</svg>
